<svg xmlns="http://www.w3.org/2000/svg" xmlns:xlink="http://www.w3.org/1999/xlink" width="500" zoomAndPan="magnify" viewBox="0 0 375 374.999991" height="500" preserveAspectRatio="xMidYMid meet" version="1.2"><g id="553945f37f"><rect x="0" width="375" y="0" height="374.999991" style="fill:#ffffff;fill-opacity:1;stroke:none;"/><rect x="0" width="375" y="0" height="374.999991" style="fill:#ffffff;fill-opacity:1;stroke:none;"/><path style=" stroke:none;fill-rule:nonzero;fill:#0e45e9;fill-opacity:1;" d="M 187.5 0 C 190.570312 0 193.636719 0.0742188 196.699219 0.226562 C 199.765625 0.375 202.824219 0.601562 205.878906 0.902344 C 208.933594 1.203125 211.976562 1.578125 215.011719 2.03125 C 218.046875 2.480469 221.070312 3.003906 224.078125 3.601562 C 227.089844 4.203125 230.082031 4.875 233.058594 5.617188 C 236.035156 6.363281 238.992188 7.183594 241.929688 8.074219 C 244.863281 8.964844 247.777344 9.925781 250.667969 10.960938 C 253.554688 11.996094 256.417969 13.097656 259.253906 14.273438 C 262.089844 15.445312 264.894531 16.691406 267.667969 18.003906 C 270.441406 19.3125 273.179688 20.691406 275.886719 22.140625 C 278.59375 23.585938 281.261719 25.097656 283.894531 26.675781 C 286.527344 28.253906 289.117188 29.894531 291.667969 31.597656 C 294.222656 33.304688 296.730469 35.070312 299.195312 36.898438 C 301.660156 38.726562 304.078125 40.613281 306.449219 42.558594 C 308.820312 44.507812 311.144531 46.511719 313.417969 48.570312 C 315.691406 50.632812 317.914062 52.746094 320.082031 54.917969 C 322.253906 57.085938 324.367188 59.308594 326.429688 61.582031 C 328.488281 63.855469 330.492188 66.179688 332.4375 68.550781 C 334.386719 70.921875 336.273438 73.339844 338.101562 75.804688 C 339.929688 78.269531 341.695312 80.777344 343.402344 83.332031 C 345.105469 85.882812 346.746094 88.472656 348.324219 91.105469 C 349.902344 93.738281 351.414062 96.40625 352.859375 99.113281 C 354.308594 101.820312 355.6875 104.558594 356.996094 107.332031 C 358.308594 110.105469 359.554688 112.910156 360.726562 115.746094 C 361.902344 118.582031 363.003906 121.445312 364.039062 124.332031 C 365.074219 127.222656 366.035156 130.136719 366.925781 133.070312 C 367.816406 136.007812 368.636719 138.964844 369.378906 141.941406 C 370.125 144.917969 370.796875 147.910156 371.398438 150.921875 C 371.996094 153.929688 372.519531 156.953125 372.96875 159.988281 C 373.421875 163.023438 373.796875 166.066406 374.097656 169.121094 C 374.398438 172.175781 374.625 175.234375 374.773438 178.300781 C 374.925781 181.363281 375 184.429688 375 187.5 C 375 190.570312 374.925781 193.636719 374.773438 196.699219 C 374.625 199.765625 374.398438 202.824219 374.097656 205.878906 C 373.796875 208.933594 373.421875 211.976562 372.96875 215.011719 C 372.519531 218.046875 371.996094 221.070312 371.398438 224.078125 C 370.796875 227.089844 370.125 230.082031 369.378906 233.058594 C 368.636719 236.035156 367.816406 238.992188 366.925781 241.929688 C 366.035156 244.863281 365.074219 247.777344 364.039062 250.667969 C 363.003906 253.554688 361.902344 256.417969 360.726562 259.253906 C 359.554688 262.089844 358.308594 264.890625 356.996094 267.667969 C 355.6875 270.441406 354.308594 273.179688 352.859375 275.886719 C 351.414062 278.59375 349.902344 281.261719 348.324219 283.894531 C 346.746094 286.527344 345.105469 289.117188 343.402344 291.667969 C 341.695312 294.222656 339.929688 296.730469 338.101562 299.195312 C 336.273438 301.660156 334.386719 304.078125 332.4375 306.449219 C 330.492188 308.820312 328.488281 311.144531 326.429688 313.417969 C 324.367188 315.691406 322.253906 317.914062 320.082031 320.082031 C 317.914062 322.253906 315.691406 324.367188 313.417969 326.429688 C 311.144531 328.488281 308.820312 330.492188 306.449219 332.4375 C 304.078125 334.386719 301.660156 336.273438 299.195312 338.101562 C 296.730469 339.929688 294.222656 341.695312 291.667969 343.402344 C 289.117188 345.105469 286.527344 346.746094 283.894531 348.324219 C 281.261719 349.902344 278.59375 351.414062 275.886719 352.859375 C 273.179688 354.308594 270.441406 355.6875 267.667969 356.996094 C 264.894531 358.308594 262.089844 359.554688 259.253906 360.726562 C 256.417969 361.902344 253.554688 363.003906 250.667969 364.039062 C 247.777344 365.074219 244.863281 366.035156 241.929688 366.925781 C 238.992188 367.816406 236.035156 368.636719 233.058594 369.378906 C 230.082031 370.125 227.089844 370.796875 224.078125 371.398438 C 221.070312 371.996094 218.046875 372.519531 215.011719 372.96875 C 211.976562 373.421875 208.933594 373.796875 205.878906 374.097656 C 202.824219 374.398438 199.765625 374.625 196.699219 374.773438 C 193.636719 374.925781 190.570312 375 187.5 375 C 184.429688 375 181.363281 374.925781 178.300781 374.773438 C 175.234375 374.625 172.175781 374.398438 169.121094 374.097656 C 166.066406 373.796875 163.023438 373.421875 159.988281 372.96875 C 156.953125 372.519531 153.929688 371.996094 150.921875 371.398438 C 147.910156 370.796875 144.917969 370.125 141.941406 369.378906 C 138.964844 368.636719 136.007812 367.816406 133.070312 366.925781 C 130.136719 366.035156 127.222656 365.074219 124.332031 364.039062 C 121.445312 363.003906 118.582031 361.902344 115.746094 360.726562 C 112.910156 359.554688 110.105469 358.308594 107.332031 356.996094 C 104.558594 355.6875 101.820312 354.308594 99.113281 352.859375 C 96.40625 351.414062 93.738281 349.902344 91.105469 348.324219 C 88.472656 346.746094 85.882812 345.105469 83.332031 343.402344 C 80.777344 341.695312 78.269531 339.929688 75.804688 338.101562 C 73.339844 336.273438 70.921875 334.386719 68.550781 332.4375 C 66.179688 330.492188 63.855469 328.488281 61.582031 326.429688 C 59.308594 324.367188 57.085938 322.253906 54.917969 320.082031 C 52.746094 317.914062 50.632812 315.691406 48.570312 313.417969 C 46.511719 311.144531 44.507812 308.820312 42.558594 306.449219 C 40.613281 304.078125 38.726562 301.660156 36.898438 299.195312 C 35.070312 296.730469 33.304688 294.222656 31.597656 291.667969 C 29.894531 289.117188 28.253906 286.527344 26.675781 283.894531 C 25.097656 281.261719 23.585938 278.59375 22.140625 275.886719 C 20.691406 273.179688 19.3125 270.441406 18.003906 267.667969 C 16.691406 264.890625 15.445312 262.089844 14.273438 259.253906 C 13.097656 256.417969 11.996094 253.554688 10.960938 250.667969 C 9.925781 247.777344 8.964844 244.863281 8.074219 241.929688 C 7.183594 238.992188 6.363281 236.035156 5.621094 233.058594 C 4.875 230.082031 4.203125 227.089844 3.601562 224.078125 C 3.003906 221.070312 2.480469 218.046875 2.03125 215.011719 C 1.578125 211.976562 1.203125 208.933594 0.902344 205.878906 C 0.601562 202.824219 0.375 199.765625 0.226562 196.699219 C 0.0742188 193.636719 0 190.570312 0 187.5 C 0.00390625 184.433594 0.0820312 181.367188 0.234375 178.304688 C 0.390625 175.238281 0.617188 172.179688 0.921875 169.128906 C 1.226562 166.074219 1.605469 163.03125 2.058594 160 C 2.511719 156.964844 3.035156 153.945312 3.636719 150.933594 C 4.238281 147.925781 4.914062 144.933594 5.660156 141.960938 C 6.410156 138.984375 7.230469 136.03125 8.121094 133.09375 C 9.015625 130.160156 9.976562 127.25 11.011719 124.363281 C 12.046875 121.472656 13.152344 118.613281 14.328125 115.78125 C 15.503906 112.945312 16.75 110.144531 18.0625 107.371094 C 19.375 104.597656 20.753906 101.859375 22.203125 99.15625 C 23.648438 96.449219 25.164062 93.78125 26.742188 91.152344 C 28.316406 88.519531 29.960938 85.929688 31.664062 83.382812 C 33.371094 80.832031 35.136719 78.324219 36.964844 75.859375 C 38.792969 73.398438 40.679688 70.980469 42.625 68.609375 C 44.570312 66.238281 46.574219 63.914062 48.636719 61.644531 C 50.695312 59.371094 52.8125 57.148438 54.980469 54.980469 C 57.148438 52.8125 59.371094 50.695312 61.644531 48.636719 C 63.914062 46.574219 66.238281 44.570312 68.609375 42.625 C 70.980469 40.679688 73.398438 38.792969 75.859375 36.964844 C 78.324219 35.136719 80.832031 33.371094 83.382812 31.664062 C 85.929688 29.960938 88.519531 28.316406 91.152344 26.742188 C 93.78125 25.164062 96.449219 23.648438 99.15625 22.203125 C 101.859375 20.753906 104.597656 19.375 107.371094 18.0625 C 110.144531 16.75 112.945312 15.503906 115.78125 14.328125 C 118.613281 13.152344 121.472656 12.046875 124.363281 11.011719 C 127.25 9.976562 130.160156 9.015625 133.09375 8.121094 C 136.03125 7.230469 138.984375 6.410156 141.960938 5.660156 C 144.933594 4.914062 147.925781 4.238281 150.933594 3.636719 C 153.945312 3.035156 156.964844 2.511719 160 2.058594 C 163.03125 1.605469 166.074219 1.226562 169.128906 0.921875 C 172.179688 0.617188 175.238281 0.390625 178.304688 0.234375 C 181.367188 0.0820312 184.433594 0.00390625 187.5 0 Z M 187.5 349.433594 C 190.148438 349.433594 192.796875 349.367188 195.445312 349.238281 C 198.09375 349.105469 200.734375 348.910156 203.371094 348.652344 C 206.007812 348.390625 208.640625 348.066406 211.261719 347.679688 C 213.882812 347.289062 216.492188 346.835938 219.089844 346.320312 C 221.691406 345.804688 224.277344 345.222656 226.847656 344.578125 C 229.417969 343.933594 231.96875 343.226562 234.507812 342.460938 C 237.042969 341.691406 239.558594 340.859375 242.054688 339.964844 C 244.546875 339.074219 247.019531 338.121094 249.46875 337.105469 C 251.917969 336.089844 254.339844 335.019531 256.734375 333.882812 C 259.128906 332.75 261.496094 331.558594 263.835938 330.3125 C 266.171875 329.0625 268.476562 327.757812 270.75 326.394531 C 273.023438 325.03125 275.261719 323.613281 277.464844 322.140625 C 279.667969 320.667969 281.835938 319.144531 283.960938 317.566406 C 286.089844 315.984375 288.179688 314.355469 290.226562 312.675781 C 292.277344 310.992188 294.28125 309.261719 296.246094 307.484375 C 298.210938 305.703125 300.128906 303.878906 302.003906 302.003906 C 303.878906 300.128906 305.703125 298.210938 307.484375 296.246094 C 309.261719 294.28125 310.992188 292.277344 312.675781 290.226562 C 314.355469 288.179688 315.984375 286.089844 317.566406 283.960938 C 319.144531 281.835938 320.667969 279.667969 322.140625 277.464844 C 323.613281 275.261719 325.03125 273.023438 326.394531 270.75 C 327.757812 268.476562 329.0625 266.171875 330.3125 263.835938 C 331.558594 261.496094 332.75 259.128906 333.882812 256.734375 C 335.019531 254.339844 336.089844 251.917969 337.105469 249.46875 C 338.121094 247.019531 339.074219 244.546875 339.964844 242.054688 C 340.859375 239.558594 341.691406 237.042969 342.460938 234.507812 C 343.226562 231.96875 343.933594 229.417969 344.578125 226.847656 C 345.222656 224.277344 345.804688 221.691406 346.320312 219.089844 C 346.835938 216.492188 347.289062 213.882812 347.679688 211.261719 C 348.066406 208.640625 348.390625 206.007812 348.652344 203.371094 C 348.910156 200.734375 349.105469 198.09375 349.238281 195.445312 C 349.367188 192.796875 349.433594 190.148438 349.433594 187.5 C 349.433594 184.851562 349.367188 182.203125 349.238281 179.554688 C 349.105469 176.90625 348.910156 174.265625 348.652344 171.628906 C 348.390625 168.992188 348.066406 166.359375 347.679688 163.738281 C 347.289062 161.117188 346.835938 158.507812 346.320312 155.910156 C 345.804688 153.308594 345.222656 150.722656 344.578125 148.152344 C 343.933594 145.582031 343.226562 143.03125 342.460938 140.492188 C 341.691406 137.957031 340.859375 135.441406 339.964844 132.945312 C 339.074219 130.453125 338.121094 127.980469 337.105469 125.53125 C 336.089844 123.082031 335.019531 120.660156 333.882812 118.265625 C 332.75 115.871094 331.558594 113.503906 330.3125 111.164062 C 329.0625 108.828125 327.757812 106.523438 326.394531 104.25 C 325.03125 101.976562 323.613281 99.738281 322.140625 97.535156 C 320.667969 95.332031 319.144531 93.164062 317.566406 91.039062 C 315.984375 88.910156 314.355469 86.820312 312.675781 84.773438 C 310.992188 82.722656 309.261719 80.71875 307.484375 78.753906 C 305.703125 76.789062 303.878906 74.871094 302.003906 72.996094 C 300.128906 71.121094 298.210938 69.296875 296.246094 67.515625 C 294.28125 65.738281 292.277344 64.007812 290.226562 62.324219 C 288.179688 60.644531 286.089844 59.015625 283.960938 57.433594 C 281.835938 55.855469 279.667969 54.332031 277.464844 52.859375 C 275.261719 51.386719 273.023438 49.96875 270.75 48.605469 C 268.476562 47.242188 266.171875 45.9375 263.835938 44.6875 C 261.496094 43.441406 259.128906 42.25 256.734375 41.117188 C 254.339844 39.980469 251.917969 38.910156 249.46875 37.894531 C 247.019531 36.878906 244.546875 35.925781 242.054688 35.035156 C 239.558594 34.140625 237.042969 33.308594 234.507812 32.539062 C 231.96875 31.773438 229.417969 31.066406 226.847656 30.421875 C 224.277344 29.777344 221.691406 29.195312 219.089844 28.679688 C 216.492188 28.164062 213.882812 27.710938 211.261719 27.320312 C 208.640625 26.933594 206.007812 26.609375 203.371094 26.347656 C 200.734375 26.089844 198.09375 25.894531 195.445312 25.761719 C 192.796875 25.632812 190.148438 25.566406 187.5 25.566406 C 184.851562 25.566406 182.203125 25.632812 179.554688 25.761719 C 176.90625 25.894531 174.265625 26.089844 171.628906 26.347656 C 168.992188 26.609375 166.359375 26.933594 163.738281 27.320312 C 161.117188 27.710938 158.507812 28.164062 155.910156 28.679688 C 153.308594 29.195312 150.722656 29.777344 148.152344 30.421875 C 145.582031 31.066406 143.03125 31.773438 140.492188 32.539062 C 137.957031 33.308594 135.441406 34.140625 132.945312 35.035156 C 130.453125 35.925781 127.980469 36.878906 125.53125 37.894531 C 123.082031 38.910156 120.660156 39.980469 118.265625 41.117188 C 115.871094 42.25 113.503906 43.441406 111.164062 44.6875 C 108.828125 45.9375 106.523438 47.242188 104.25 48.605469 C 101.976562 49.96875 99.738281 51.386719 97.535156 52.859375 C 95.332031 54.332031 93.164062 55.855469 91.039062 57.433594 C 88.910156 59.015625 86.820312 60.644531 84.773438 62.324219 C 82.722656 64.007812 80.71875 65.738281 78.753906 67.515625 C 76.789062 69.296875 74.871094 71.121094 72.996094 72.996094 C 71.121094 74.871094 69.296875 76.789062 67.515625 78.753906 C 65.738281 80.71875 64.007812 82.722656 62.324219 84.773438 C 60.644531 86.820312 59.015625 88.910156 57.433594 91.039062 C 55.855469 93.164062 54.332031 95.332031 52.859375 97.535156 C 51.386719 99.738281 49.96875 101.976562 48.605469 104.25 C 47.242188 106.523438 45.9375 108.828125 44.6875 111.164062 C 43.441406 113.503906 42.25 115.871094 41.117188 118.265625 C 39.980469 120.660156 38.910156 123.082031 37.894531 125.53125 C 36.878906 127.980469 35.925781 130.453125 35.035156 132.945312 C 34.140625 135.441406 33.308594 137.957031 32.539062 140.492188 C 31.773438 143.03125 31.066406 145.582031 30.421875 148.152344 C 29.777344 150.722656 29.195312 153.308594 28.679688 155.910156 C 28.164062 158.507812 27.710938 161.117188 27.320312 163.738281 C 26.933594 166.359375 26.609375 168.992188 26.347656 171.628906 C 26.089844 174.265625 25.894531 176.90625 25.761719 179.554688 C 25.632812 182.203125 25.566406 184.851562 25.566406 187.5 C 25.570312 190.148438 25.640625 192.796875 25.773438 195.441406 C 25.90625 198.089844 26.101562 200.730469 26.363281 203.367188 C 26.625 206.003906 26.953125 208.632812 27.34375 211.25 C 27.734375 213.871094 28.191406 216.480469 28.710938 219.078125 C 29.226562 221.675781 29.8125 224.261719 30.457031 226.828125 C 31.101562 229.398438 31.808594 231.953125 32.582031 234.484375 C 33.351562 237.019531 34.183594 239.535156 35.078125 242.03125 C 35.972656 244.523438 36.925781 246.992188 37.941406 249.441406 C 38.957031 251.886719 40.03125 254.308594 41.164062 256.703125 C 42.300781 259.097656 43.492188 261.460938 44.742188 263.796875 C 45.992188 266.132812 47.296875 268.4375 48.660156 270.710938 C 50.023438 272.984375 51.441406 275.21875 52.914062 277.421875 C 54.386719 279.625 55.910156 281.789062 57.492188 283.917969 C 59.070312 286.046875 60.699219 288.132812 62.378906 290.179688 C 64.0625 292.226562 65.789062 294.234375 67.570312 296.195312 C 69.347656 298.160156 71.175781 300.078125 73.050781 301.949219 C 74.921875 303.824219 76.839844 305.652344 78.804688 307.429688 C 80.765625 309.210938 82.773438 310.9375 84.820312 312.621094 C 86.867188 314.300781 88.953125 315.929688 91.082031 317.507812 C 93.210938 319.089844 95.375 320.613281 97.578125 322.085938 C 99.78125 323.558594 102.015625 324.976562 104.289062 326.339844 C 106.5625 327.703125 108.863281 329.007812 111.203125 330.257812 C 113.539062 331.507812 115.902344 332.699219 118.296875 333.835938 C 120.691406 334.96875 123.113281 336.042969 125.558594 337.058594 C 128.007812 338.074219 130.476562 339.027344 132.96875 339.921875 C 135.464844 340.816406 137.980469 341.648438 140.511719 342.417969 C 143.046875 343.191406 145.601562 343.898438 148.167969 344.542969 C 150.738281 345.1875 153.324219 345.773438 155.921875 346.289062 C 158.519531 346.808594 161.128906 347.265625 163.75 347.65625 C 166.367188 348.046875 168.996094 348.375 171.632812 348.636719 C 174.269531 348.898438 176.910156 349.09375 179.558594 349.226562 C 182.203125 349.359375 184.851562 349.429688 187.5 349.433594 Z M 105.195312 197.011719 L 234.554688 275.285156 C 235.394531 275.800781 236.289062 276.195312 237.238281 276.472656 C 238.183594 276.75 239.148438 276.894531 240.136719 276.914062 C 241.125 276.933594 242.09375 276.820312 243.050781 276.578125 C 244.007812 276.335938 244.917969 275.976562 245.777344 275.492188 C 246.636719 275.007812 247.417969 274.417969 248.121094 273.726562 C 248.820312 273.035156 249.421875 272.261719 249.917969 271.40625 C 250.414062 270.554688 250.789062 269.652344 251.042969 268.699219 C 251.300781 267.746094 251.425781 266.777344 251.421875 265.789062 L 251.421875 109.210938 C 251.425781 108.222656 251.300781 107.253906 251.042969 106.300781 C 250.789062 105.347656 250.414062 104.445312 249.917969 103.59375 C 249.421875 102.738281 248.820312 101.964844 248.121094 101.273438 C 247.417969 100.582031 246.636719 99.992188 245.777344 99.507812 C 244.917969 99.023438 244.007812 98.664062 243.050781 98.421875 C 242.09375 98.179688 241.125 98.066406 240.136719 98.085938 C 239.148438 98.105469 238.183594 98.25 237.238281 98.527344 C 236.289062 98.804688 235.394531 99.199219 234.554688 99.714844 L 105.195312 178.003906 C 104.789062 178.253906 104.402344 178.523438 104.03125 178.820312 C 103.660156 179.117188 103.308594 179.4375 102.976562 179.78125 C 102.648438 180.121094 102.339844 180.484375 102.054688 180.863281 C 101.773438 181.246094 101.511719 181.644531 101.28125 182.058594 C 101.046875 182.472656 100.839844 182.898438 100.664062 183.339844 C 100.484375 183.78125 100.335938 184.230469 100.214844 184.691406 C 100.09375 185.152344 100.003906 185.617188 99.945312 186.089844 C 99.882812 186.558594 99.851562 187.03125 99.851562 187.507812 C 99.851562 187.984375 99.882812 188.457031 99.945312 188.929688 C 100.003906 189.398438 100.09375 189.867188 100.214844 190.324219 C 100.335938 190.785156 100.484375 191.234375 100.664062 191.675781 C 100.839844 192.117188 101.046875 192.546875 101.28125 192.960938 C 101.511719 193.375 101.773438 193.773438 102.054688 194.152344 C 102.339844 194.535156 102.648438 194.894531 102.976562 195.238281 C 103.308594 195.578125 103.660156 195.898438 104.03125 196.195312 C 104.402344 196.492188 104.789062 196.765625 105.195312 197.011719 Z M 105.195312 197.011719 "/></g></svg>