<svg xmlns="http://www.w3.org/2000/svg" xmlns:xlink="http://www.w3.org/1999/xlink" width="500" zoomAndPan="magnify" viewBox="0 0 375 374.999991" height="500" preserveAspectRatio="xMidYMid meet" version="1.2"><g id="187839b8a0"><rect x="0" width="375" y="0" height="374.999991" style="fill:#ffffff;fill-opacity:1;stroke:none;"/><rect x="0" width="375" y="0" height="374.999991" style="fill:#ffffff;fill-opacity:1;stroke:none;"/><path style=" stroke:none;fill-rule:nonzero;fill:#0e45e9;fill-opacity:1;" d="M 187.5 0 C 184.429688 0 181.363281 0.0742188 178.300781 0.226562 C 175.234375 0.375 172.175781 0.601562 169.121094 0.902344 C 166.066406 1.203125 163.023438 1.578125 159.988281 2.03125 C 156.953125 2.480469 153.929688 3.003906 150.921875 3.601562 C 147.910156 4.203125 144.917969 4.875 141.941406 5.617188 C 138.964844 6.363281 136.007812 7.183594 133.070312 8.074219 C 130.136719 8.964844 127.222656 9.925781 124.332031 10.960938 C 121.445312 11.996094 118.582031 13.097656 115.746094 14.273438 C 112.910156 15.445312 110.105469 16.691406 107.332031 18.003906 C 104.558594 19.3125 101.820312 20.691406 99.113281 22.140625 C 96.40625 23.585938 93.738281 25.097656 91.105469 26.675781 C 88.472656 28.253906 85.882812 29.894531 83.332031 31.597656 C 80.777344 33.304688 78.269531 35.070312 75.804688 36.898438 C 73.339844 38.726562 70.921875 40.613281 68.550781 42.558594 C 66.179688 44.507812 63.855469 46.511719 61.582031 48.570312 C 59.308594 50.632812 57.085938 52.746094 54.917969 54.917969 C 52.746094 57.085938 50.632812 59.308594 48.570312 61.582031 C 46.511719 63.855469 44.507812 66.179688 42.558594 68.550781 C 40.613281 70.921875 38.726562 73.339844 36.898438 75.804688 C 35.070312 78.269531 33.304688 80.777344 31.597656 83.332031 C 29.894531 85.882812 28.253906 88.472656 26.675781 91.105469 C 25.097656 93.738281 23.585938 96.40625 22.140625 99.113281 C 20.691406 101.820312 19.3125 104.558594 18.003906 107.332031 C 16.691406 110.105469 15.445312 112.910156 14.273438 115.746094 C 13.097656 118.582031 11.996094 121.445312 10.960938 124.332031 C 9.925781 127.222656 8.964844 130.136719 8.074219 133.070312 C 7.183594 136.007812 6.363281 138.964844 5.621094 141.941406 C 4.875 144.917969 4.203125 147.910156 3.601562 150.921875 C 3.003906 153.929688 2.480469 156.953125 2.03125 159.988281 C 1.578125 163.023438 1.203125 166.066406 0.902344 169.121094 C 0.601562 172.175781 0.375 175.234375 0.226562 178.300781 C 0.0742188 181.363281 0 184.429688 0 187.5 C 0 190.570312 0.0742188 193.636719 0.226562 196.699219 C 0.375 199.765625 0.601562 202.824219 0.902344 205.878906 C 1.203125 208.933594 1.578125 211.976562 2.03125 215.011719 C 2.480469 218.046875 3.003906 221.070312 3.601562 224.078125 C 4.203125 227.089844 4.875 230.082031 5.621094 233.058594 C 6.363281 236.035156 7.183594 238.992188 8.074219 241.929688 C 8.964844 244.863281 9.925781 247.777344 10.960938 250.667969 C 11.996094 253.554688 13.097656 256.417969 14.273438 259.253906 C 15.445312 262.089844 16.691406 264.890625 18.003906 267.667969 C 19.3125 270.441406 20.691406 273.179688 22.140625 275.886719 C 23.585938 278.59375 25.097656 281.261719 26.675781 283.894531 C 28.253906 286.527344 29.894531 289.117188 31.597656 291.667969 C 33.304688 294.222656 35.070312 296.730469 36.898438 299.195312 C 38.726562 301.660156 40.613281 304.078125 42.558594 306.449219 C 44.507812 308.820312 46.511719 311.144531 48.570312 313.417969 C 50.632812 315.691406 52.746094 317.914062 54.917969 320.082031 C 57.085938 322.253906 59.308594 324.367188 61.582031 326.429688 C 63.855469 328.488281 66.179688 330.492188 68.550781 332.4375 C 70.921875 334.386719 73.339844 336.273438 75.804688 338.101562 C 78.269531 339.929688 80.777344 341.695312 83.332031 343.402344 C 85.882812 345.105469 88.472656 346.746094 91.105469 348.324219 C 93.738281 349.902344 96.40625 351.414062 99.113281 352.859375 C 101.820312 354.308594 104.558594 355.6875 107.332031 356.996094 C 110.105469 358.308594 112.910156 359.554688 115.746094 360.726562 C 118.582031 361.902344 121.445312 363.003906 124.332031 364.039062 C 127.222656 365.074219 130.136719 366.035156 133.070312 366.925781 C 136.007812 367.816406 138.964844 368.636719 141.941406 369.378906 C 144.917969 370.125 147.910156 370.796875 150.921875 371.398438 C 153.929688 371.996094 156.953125 372.519531 159.988281 372.96875 C 163.023438 373.421875 166.066406 373.796875 169.121094 374.097656 C 172.175781 374.398438 175.234375 374.625 178.300781 374.773438 C 181.363281 374.925781 184.429688 375 187.5 375 C 190.570312 375 193.636719 374.925781 196.699219 374.773438 C 199.765625 374.625 202.824219 374.398438 205.878906 374.097656 C 208.933594 373.796875 211.976562 373.421875 215.011719 372.96875 C 218.046875 372.519531 221.070312 371.996094 224.078125 371.398438 C 227.089844 370.796875 230.082031 370.125 233.058594 369.378906 C 236.035156 368.636719 238.992188 367.816406 241.929688 366.925781 C 244.863281 366.035156 247.777344 365.074219 250.667969 364.039062 C 253.554688 363.003906 256.417969 361.902344 259.253906 360.726562 C 262.089844 359.554688 264.890625 358.308594 267.667969 356.996094 C 270.441406 355.6875 273.179688 354.308594 275.886719 352.859375 C 278.59375 351.414062 281.261719 349.902344 283.894531 348.324219 C 286.527344 346.746094 289.117188 345.105469 291.667969 343.402344 C 294.222656 341.695312 296.730469 339.929688 299.195312 338.101562 C 301.660156 336.273438 304.078125 334.386719 306.449219 332.4375 C 308.820312 330.492188 311.144531 328.488281 313.417969 326.429688 C 315.691406 324.367188 317.914062 322.253906 320.082031 320.082031 C 322.253906 317.914062 324.367188 315.691406 326.429688 313.417969 C 328.488281 311.144531 330.492188 308.820312 332.4375 306.449219 C 334.386719 304.078125 336.273438 301.660156 338.101562 299.195312 C 339.929688 296.730469 341.695312 294.222656 343.402344 291.667969 C 345.105469 289.117188 346.746094 286.527344 348.324219 283.894531 C 349.902344 281.261719 351.414062 278.59375 352.859375 275.886719 C 354.308594 273.179688 355.6875 270.441406 356.996094 267.667969 C 358.308594 264.890625 359.554688 262.089844 360.726562 259.253906 C 361.902344 256.417969 363.003906 253.554688 364.039062 250.667969 C 365.074219 247.777344 366.035156 244.863281 366.925781 241.929688 C 367.816406 238.992188 368.636719 236.035156 369.378906 233.058594 C 370.125 230.082031 370.796875 227.089844 371.398438 224.078125 C 371.996094 221.070312 372.519531 218.046875 372.96875 215.011719 C 373.421875 211.976562 373.796875 208.933594 374.097656 205.878906 C 374.398438 202.824219 374.625 199.765625 374.773438 196.699219 C 374.925781 193.636719 375 190.570312 375 187.5 C 374.996094 184.433594 374.917969 181.367188 374.765625 178.304688 C 374.609375 175.238281 374.382812 172.179688 374.078125 169.128906 C 373.773438 166.074219 373.394531 163.03125 372.941406 160 C 372.488281 156.964844 371.964844 153.945312 371.363281 150.933594 C 370.761719 147.925781 370.085938 144.933594 369.339844 141.960938 C 368.589844 138.984375 367.769531 136.03125 366.878906 133.09375 C 365.984375 130.160156 365.023438 127.25 363.988281 124.363281 C 362.953125 121.472656 361.847656 118.613281 360.671875 115.78125 C 359.496094 112.945312 358.25 110.144531 356.9375 107.371094 C 355.625 104.597656 354.246094 101.859375 352.796875 99.15625 C 351.351562 96.449219 349.835938 93.78125 348.257812 91.152344 C 346.683594 88.519531 345.039062 85.929688 343.335938 83.382812 C 341.628906 80.832031 339.863281 78.324219 338.035156 75.859375 C 336.207031 73.398438 334.320312 70.980469 332.375 68.609375 C 330.429688 66.238281 328.425781 63.914062 326.363281 61.644531 C 324.304688 59.371094 322.1875 57.148438 320.019531 54.980469 C 317.851562 52.8125 315.628906 50.695312 313.355469 48.636719 C 311.085938 46.574219 308.761719 44.570312 306.390625 42.625 C 304.019531 40.679688 301.601562 38.792969 299.140625 36.964844 C 296.675781 35.136719 294.167969 33.371094 291.617188 31.664062 C 289.070312 29.960938 286.480469 28.316406 283.847656 26.742188 C 281.21875 25.164062 278.550781 23.648438 275.84375 22.203125 C 273.140625 20.753906 270.402344 19.375 267.628906 18.0625 C 264.855469 16.75 262.054688 15.503906 259.21875 14.328125 C 256.386719 13.152344 253.527344 12.046875 250.636719 11.011719 C 247.75 9.976562 244.839844 9.015625 241.90625 8.121094 C 238.96875 7.230469 236.015625 6.410156 233.039062 5.660156 C 230.066406 4.914062 227.074219 4.238281 224.066406 3.636719 C 221.054688 3.035156 218.035156 2.511719 215 2.058594 C 211.96875 1.605469 208.925781 1.226562 205.871094 0.921875 C 202.820312 0.617188 199.761719 0.390625 196.695312 0.234375 C 193.632812 0.0820312 190.566406 0.00390625 187.5 0 Z M 187.5 349.433594 C 184.851562 349.433594 182.203125 349.367188 179.554688 349.238281 C 176.90625 349.105469 174.265625 348.910156 171.628906 348.652344 C 168.992188 348.390625 166.359375 348.066406 163.738281 347.679688 C 161.117188 347.289062 158.507812 346.835938 155.910156 346.320312 C 153.308594 345.804688 150.722656 345.222656 148.152344 344.578125 C 145.582031 343.933594 143.03125 343.226562 140.492188 342.460938 C 137.957031 341.691406 135.441406 340.859375 132.945312 339.964844 C 130.453125 339.074219 127.980469 338.121094 125.53125 337.105469 C 123.082031 336.089844 120.660156 335.019531 118.265625 333.882812 C 115.871094 332.75 113.503906 331.558594 111.164062 330.3125 C 108.828125 329.0625 106.523438 327.757812 104.25 326.394531 C 101.976562 325.03125 99.738281 323.613281 97.535156 322.140625 C 95.332031 320.667969 93.164062 319.144531 91.039062 317.566406 C 88.910156 315.984375 86.820312 314.355469 84.773438 312.675781 C 82.722656 310.992188 80.71875 309.261719 78.753906 307.484375 C 76.789062 305.703125 74.871094 303.878906 72.996094 302.003906 C 71.121094 300.128906 69.296875 298.210938 67.515625 296.246094 C 65.738281 294.28125 64.007812 292.277344 62.324219 290.226562 C 60.644531 288.179688 59.015625 286.089844 57.433594 283.960938 C 55.855469 281.835938 54.332031 279.667969 52.859375 277.464844 C 51.386719 275.261719 49.96875 273.023438 48.605469 270.75 C 47.242188 268.476562 45.9375 266.171875 44.6875 263.835938 C 43.441406 261.496094 42.25 259.128906 41.117188 256.734375 C 39.980469 254.339844 38.910156 251.917969 37.894531 249.46875 C 36.878906 247.019531 35.925781 244.546875 35.035156 242.054688 C 34.140625 239.558594 33.308594 237.042969 32.539062 234.507812 C 31.773438 231.96875 31.066406 229.417969 30.421875 226.847656 C 29.777344 224.277344 29.195312 221.691406 28.679688 219.089844 C 28.164062 216.492188 27.710938 213.882812 27.320312 211.261719 C 26.933594 208.640625 26.609375 206.007812 26.347656 203.371094 C 26.089844 200.734375 25.894531 198.09375 25.761719 195.445312 C 25.632812 192.796875 25.566406 190.148438 25.566406 187.5 C 25.566406 184.851562 25.632812 182.203125 25.761719 179.554688 C 25.894531 176.90625 26.089844 174.265625 26.347656 171.628906 C 26.609375 168.992188 26.933594 166.359375 27.320312 163.738281 C 27.710938 161.117188 28.164062 158.507812 28.679688 155.910156 C 29.195312 153.308594 29.777344 150.722656 30.421875 148.152344 C 31.066406 145.582031 31.773438 143.03125 32.539062 140.492188 C 33.308594 137.957031 34.140625 135.441406 35.035156 132.945312 C 35.925781 130.453125 36.878906 127.980469 37.894531 125.53125 C 38.910156 123.082031 39.980469 120.660156 41.117188 118.265625 C 42.25 115.871094 43.441406 113.503906 44.6875 111.164062 C 45.9375 108.828125 47.242188 106.523438 48.605469 104.25 C 49.96875 101.976562 51.386719 99.738281 52.859375 97.535156 C 54.332031 95.332031 55.855469 93.164062 57.433594 91.039062 C 59.015625 88.910156 60.644531 86.820312 62.324219 84.773438 C 64.007812 82.722656 65.738281 80.71875 67.515625 78.753906 C 69.296875 76.789062 71.121094 74.871094 72.996094 72.996094 C 74.871094 71.121094 76.789062 69.296875 78.753906 67.515625 C 80.71875 65.738281 82.722656 64.007812 84.773438 62.324219 C 86.820312 60.644531 88.910156 59.015625 91.039062 57.433594 C 93.164062 55.855469 95.332031 54.332031 97.535156 52.859375 C 99.738281 51.386719 101.976562 49.96875 104.25 48.605469 C 106.523438 47.242188 108.828125 45.9375 111.164062 44.6875 C 113.503906 43.441406 115.871094 42.25 118.265625 41.117188 C 120.660156 39.980469 123.082031 38.910156 125.53125 37.894531 C 127.980469 36.878906 130.453125 35.925781 132.945312 35.035156 C 135.441406 34.140625 137.957031 33.308594 140.492188 32.539062 C 143.03125 31.773438 145.582031 31.066406 148.152344 30.421875 C 150.722656 29.777344 153.308594 29.195312 155.910156 28.679688 C 158.507812 28.164062 161.117188 27.710938 163.738281 27.320312 C 166.359375 26.933594 168.992188 26.609375 171.628906 26.347656 C 174.265625 26.089844 176.90625 25.894531 179.554688 25.761719 C 182.203125 25.632812 184.851562 25.566406 187.5 25.566406 C 190.148438 25.566406 192.796875 25.632812 195.445312 25.761719 C 198.09375 25.894531 200.734375 26.089844 203.371094 26.347656 C 206.007812 26.609375 208.640625 26.933594 211.261719 27.320312 C 213.882812 27.710938 216.492188 28.164062 219.089844 28.679688 C 221.691406 29.195312 224.277344 29.777344 226.847656 30.421875 C 229.417969 31.066406 231.96875 31.773438 234.507812 32.539062 C 237.042969 33.308594 239.558594 34.140625 242.054688 35.035156 C 244.546875 35.925781 247.019531 36.878906 249.46875 37.894531 C 251.917969 38.910156 254.339844 39.980469 256.734375 41.117188 C 259.128906 42.25 261.496094 43.441406 263.835938 44.6875 C 266.171875 45.9375 268.476562 47.242188 270.75 48.605469 C 273.023438 49.96875 275.261719 51.386719 277.464844 52.859375 C 279.667969 54.332031 281.835938 55.855469 283.960938 57.433594 C 286.089844 59.015625 288.179688 60.644531 290.226562 62.324219 C 292.277344 64.007812 294.28125 65.738281 296.246094 67.515625 C 298.210938 69.296875 300.128906 71.121094 302.003906 72.996094 C 303.878906 74.871094 305.703125 76.789062 307.484375 78.753906 C 309.261719 80.71875 310.992188 82.722656 312.675781 84.773438 C 314.355469 86.820312 315.984375 88.910156 317.566406 91.039062 C 319.144531 93.164062 320.667969 95.332031 322.140625 97.535156 C 323.613281 99.738281 325.03125 101.976562 326.394531 104.25 C 327.757812 106.523438 329.0625 108.828125 330.3125 111.164062 C 331.558594 113.503906 332.75 115.871094 333.882812 118.265625 C 335.019531 120.660156 336.089844 123.082031 337.105469 125.53125 C 338.121094 127.980469 339.074219 130.453125 339.964844 132.945312 C 340.859375 135.441406 341.691406 137.957031 342.460938 140.492188 C 343.226562 143.03125 343.933594 145.582031 344.578125 148.152344 C 345.222656 150.722656 345.804688 153.308594 346.320312 155.910156 C 346.835938 158.507812 347.289062 161.117188 347.679688 163.738281 C 348.066406 166.359375 348.390625 168.992188 348.652344 171.628906 C 348.910156 174.265625 349.105469 176.90625 349.238281 179.554688 C 349.367188 182.203125 349.433594 184.851562 349.433594 187.5 C 349.429688 190.148438 349.359375 192.796875 349.226562 195.441406 C 349.09375 198.089844 348.898438 200.730469 348.636719 203.367188 C 348.375 206.003906 348.046875 208.632812 347.65625 211.25 C 347.265625 213.871094 346.808594 216.480469 346.289062 219.078125 C 345.773438 221.675781 345.1875 224.261719 344.542969 226.828125 C 343.898438 229.398438 343.191406 231.953125 342.417969 234.484375 C 341.648438 237.019531 340.816406 239.535156 339.921875 242.03125 C 339.027344 244.523438 338.074219 246.992188 337.058594 249.441406 C 336.042969 251.886719 334.96875 254.308594 333.835938 256.703125 C 332.699219 259.097656 331.507812 261.460938 330.257812 263.796875 C 329.007812 266.132812 327.703125 268.4375 326.339844 270.710938 C 324.976562 272.984375 323.558594 275.21875 322.085938 277.421875 C 320.613281 279.625 319.089844 281.789062 317.507812 283.917969 C 315.929688 286.046875 314.300781 288.132812 312.621094 290.179688 C 310.9375 292.226562 309.210938 294.234375 307.429688 296.195312 C 305.652344 298.160156 303.824219 300.078125 301.949219 301.949219 C 300.078125 303.824219 298.160156 305.652344 296.195312 307.429688 C 294.234375 309.210938 292.226562 310.9375 290.179688 312.621094 C 288.132812 314.300781 286.046875 315.929688 283.917969 317.507812 C 281.789062 319.089844 279.625 320.613281 277.421875 322.085938 C 275.21875 323.558594 272.984375 324.976562 270.710938 326.339844 C 268.4375 327.703125 266.132812 329.007812 263.796875 330.257812 C 261.460938 331.507812 259.097656 332.699219 256.703125 333.835938 C 254.308594 334.96875 251.886719 336.042969 249.441406 337.058594 C 246.992188 338.074219 244.523438 339.027344 242.03125 339.921875 C 239.535156 340.816406 237.019531 341.648438 234.488281 342.417969 C 231.953125 343.191406 229.398438 343.898438 226.832031 344.542969 C 224.261719 345.1875 221.675781 345.773438 219.078125 346.289062 C 216.480469 346.808594 213.871094 347.265625 211.25 347.65625 C 208.632812 348.046875 206.003906 348.375 203.367188 348.636719 C 200.730469 348.898438 198.089844 349.09375 195.441406 349.226562 C 192.796875 349.359375 190.148438 349.429688 187.5 349.433594 Z M 269.804688 197.011719 L 140.445312 275.285156 C 139.605469 275.800781 138.710938 276.195312 137.761719 276.472656 C 136.816406 276.75 135.847656 276.894531 134.863281 276.914062 C 133.875 276.933594 132.90625 276.820312 131.949219 276.578125 C 130.992188 276.335938 130.082031 275.976562 129.222656 275.492188 C 128.363281 275.007812 127.582031 274.417969 126.878906 273.726562 C 126.179688 273.035156 125.578125 272.261719 125.082031 271.40625 C 124.585938 270.554688 124.210938 269.652344 123.957031 268.699219 C 123.699219 267.746094 123.574219 266.777344 123.578125 265.789062 L 123.578125 109.210938 C 123.574219 108.222656 123.699219 107.253906 123.957031 106.300781 C 124.210938 105.347656 124.585938 104.445312 125.082031 103.59375 C 125.578125 102.738281 126.179688 101.964844 126.878906 101.273438 C 127.582031 100.582031 128.363281 99.992188 129.222656 99.507812 C 130.082031 99.023438 130.992188 98.664062 131.949219 98.421875 C 132.90625 98.179688 133.875 98.066406 134.863281 98.085938 C 135.851562 98.105469 136.816406 98.25 137.761719 98.527344 C 138.710938 98.804688 139.605469 99.199219 140.445312 99.714844 L 269.804688 178.003906 C 270.210938 178.253906 270.597656 178.523438 270.96875 178.820312 C 271.339844 179.117188 271.691406 179.4375 272.023438 179.78125 C 272.351562 180.121094 272.660156 180.484375 272.945312 180.863281 C 273.226562 181.246094 273.488281 181.644531 273.71875 182.058594 C 273.953125 182.472656 274.160156 182.898438 274.335938 183.339844 C 274.515625 183.78125 274.664062 184.230469 274.785156 184.691406 C 274.90625 185.152344 274.996094 185.617188 275.054688 186.089844 C 275.117188 186.558594 275.148438 187.03125 275.148438 187.507812 C 275.148438 187.984375 275.117188 188.457031 275.054688 188.929688 C 274.996094 189.398438 274.90625 189.867188 274.785156 190.324219 C 274.664062 190.785156 274.515625 191.234375 274.335938 191.675781 C 274.15625 192.117188 273.953125 192.546875 273.71875 192.960938 C 273.488281 193.375 273.226562 193.773438 272.945312 194.152344 C 272.660156 194.535156 272.351562 194.894531 272.023438 195.238281 C 271.691406 195.578125 271.339844 195.898438 270.96875 196.195312 C 270.597656 196.492188 270.210938 196.765625 269.804688 197.011719 Z M 269.804688 197.011719 "/></g></svg>